<?xml version="1.0" encoding="utf-8" ?>
<svg xmlns="http://www.w3.org/2000/svg" xmlns:xlink="http://www.w3.org/1999/xlink" width="1014" height="1014">
	<path fill="#05495D" transform="scale(0.990234 0.990234)" d="M0 0L1024 0L1024 1024L0 1024L0 0Z"/>
	<path fill="#2098A6" transform="scale(0.990234 0.990234)" d="M718.456 617.178L732.981 615.117C732.989 626.288 734.298 658.356 731.696 666.962C730.93 669.496 727.892 671.633 725.759 673.109C722.344 675.471 718.552 677.35 714.988 679.48Q701.524 687.581 687.936 695.471C667.501 707.422 647.148 719.835 626.4 731.212C626.544 730.957 626.681 730.699 626.832 730.448C627.435 729.442 628.154 729.069 629.134 728.495C629.648 728.194 629.967 727.908 630.346 727.452C630.056 726.604 629.768 726.111 629.321 725.347C628.602 724.117 628.737 722.841 628.755 721.465L628.177 720.636C626.517 720.363 625.089 721.149 623.578 721.75L621.729 720.676C622.705 719.758 622.803 719.54 623.192 718.251C618.558 718.126 611.711 727.347 607.267 729.75C603.22 731.939 597.569 731.83 594.279 734.172L591.282 734.177C599.066 728.927 607.686 724.404 615.794 719.62Q640.676 704.739 665.93 690.5C683.455 680.548 700.438 669.682 717.998 659.778L718.456 617.178Z"/>
	<path fill="#F36337" transform="scale(0.990234 0.990234)" d="M679.003 518.294C693.513 515.784 707.958 513.327 722.116 509.19C760.253 498.046 803.553 474.174 828.071 442.371C815.492 473.077 791.772 507.454 762.536 524.392C755.15 528.671 747.139 531.848 739.335 535.273Q726.938 540.714 714.765 546.637C705.84 550.906 687.022 558.936 679.589 564.383C678.296 562.236 678.918 523.722 679.003 518.294Z"/>
	<path fill="#F36337" transform="scale(0.990234 0.990234)" d="M198.518 515.577C218.458 533.766 243.472 546.28 269.219 554.065C278.738 556.943 288.49 559.082 298.119 561.558C312.014 565.131 327.584 568.888 339.924 576.359C343.852 580.212 350.365 583.257 355.141 586.028Q370.264 594.653 385.29 603.446C392.241 607.527 399.956 611.551 405.99 616.924C390.174 611.66 370.28 602.988 353.434 603.53C332.326 602.088 304.663 598.534 284.643 591.823C274.03 588.266 263.247 583.933 253.663 578.129C229.859 563.713 210.795 540.24 198.518 515.577Z"/>
	<path fill="#F36337" transform="scale(0.990234 0.990234)" d="M196.212 445.266C219.838 473.434 255.292 492.121 289.771 503.479C306.772 509.08 324.24 513.229 341.017 519.535C342.509 522.704 341.933 561.779 340.569 565.652C340.551 565.704 340.526 565.753 340.505 565.803L274.935 531.719C265.195 526.772 255.349 521.707 246.582 515.141C227.547 500.885 213.321 481.351 202.807 460.227C200.377 455.347 197.906 450.46 196.212 445.266Z"/>
	<path fill="#A9CCBC" transform="scale(0.990234 0.990234)" d="M482.398 243.812L482.513 244.553C480.263 246.083 477.843 247.3 475.506 248.682C475.595 248.857 475.686 249.031 475.774 249.207C477.913 253.499 476.858 259.541 478.416 261.985C482.719 262.517 488.224 255.557 491.038 256.078L491.084 256.577C461.044 274.314 430.433 291.099 400.354 308.789L352.799 336.615C337.889 345.422 323.028 354.491 307.679 362.52C306.252 403.486 308.607 444.64 307.085 485.608C301.747 484.309 296.514 483.062 291.316 481.253C290.308 464.58 291.109 447.461 291.255 430.734Q291.577 392.301 291.448 353.867C298.758 349.974 305.747 345.548 312.888 341.361L347.884 321.005L427.992 274.927C446.113 264.493 463.954 253.7 482.398 243.812Z"/>
	<path fill="#65D0D2" transform="scale(0.990234 0.990234)" d="M512.286 226.921C523.084 232.741 533.498 239.346 544.144 245.445L642.895 302.81L709.243 341.022C717.073 345.632 725.439 349.91 732.976 354.94L733.024 482.035C728.153 484.077 723.299 486.269 718.349 488.108C718.204 446.591 717.617 405.026 717.969 363.511C703.001 354.385 687.407 346.218 672.275 337.343Q614.246 303.055 555.662 269.722Q544.872 263.795 534.314 257.464C527.163 253.182 519.432 247.674 511.567 244.936C504.446 248.175 498.25 253.57 491.084 256.577L491.038 256.078C488.224 255.557 482.719 262.517 478.416 261.985C476.858 259.541 477.913 253.499 475.774 249.207C475.686 249.031 475.595 248.857 475.506 248.682C477.843 247.3 480.263 246.083 482.513 244.553L482.398 243.812C489.236 239.08 504.671 230.477 512.286 226.921Z"/>
	<defs>
		<linearGradient id="gradient_0" gradientUnits="userSpaceOnUse" x1="482.1127" y1="803.74182" x2="440.61475" y2="587.73694">
			<stop offset="0" stop-color="#3C95A3"/>
			<stop offset="1" stop-color="#75C1BC"/>
		</linearGradient>
	</defs>
	<path fill="url(#gradient_0)" transform="scale(0.990234 0.990234)" d="M292.505 615.028L306.836 619.39C306.763 633.359 306.856 647.348 306.609 661.313L437.391 737.865Q461.671 752.566 486.195 766.853C494.9 771.94 503.571 777.365 512.666 781.724Q523.798 774.243 535.43 767.565C537.762 765.889 540.393 764.479 542.859 762.997C546.954 759.593 552.838 756.816 557.467 754.054Q574.278 743.951 591.282 734.177L594.279 734.172C597.569 731.83 603.22 731.939 607.267 729.75C611.711 727.347 618.558 718.126 623.192 718.251C622.803 719.54 622.705 719.758 621.729 720.676L623.578 721.75C625.089 721.149 626.517 720.363 628.177 720.636L628.755 721.465C628.737 722.841 628.602 724.117 629.321 725.347C629.768 726.111 630.056 726.604 630.346 727.452C629.967 727.908 629.648 728.194 629.134 728.495C628.154 729.069 627.435 729.442 626.832 730.448C626.681 730.699 626.544 730.957 626.4 731.212C604.314 744.728 581.698 757.38 559.608 770.883C544.708 779.991 527.033 792.843 511.369 799.642C499.1 793.218 487.389 785.318 475.542 778.132C462.087 769.97 448.341 762.286 434.828 754.216C425.961 748.922 417.337 743.207 408.403 738.031L330.708 693.033C319.268 686.401 302.746 677.991 292.438 670.425L292.505 615.028Z"/>
	<path fill="#2098A6" transform="scale(0.990234 0.990234)" d="M542.859 762.997C542.575 764.406 542.352 765.476 541.154 766.445C539.706 767.617 537.225 767.473 535.43 767.565C537.762 765.889 540.393 764.479 542.859 762.997Z"/>
	<path fill="#F36337" transform="scale(0.990234 0.990234)" d="M680.886 565.825L681.605 565.678C691.926 563.634 702.886 563.549 713.348 562.099C757.557 555.968 792.995 545.158 824.949 512.467C811.289 544.493 785.47 572.882 752.827 586.148C729.622 595.578 703.821 598.537 679.155 601.527Q678.994 616.624 679.109 631.721C669.951 641.186 641.259 655.643 628.851 662.805C616.948 669.675 605.402 677.092 593.36 683.736C577.931 693.158 561.842 701.375 546.468 710.927C544.99 707.57 545.939 662.346 545.943 654.898C565.395 642.757 586.183 632.129 606.415 621.354C630.429 608.564 654.311 595.583 679.067 584.272C678.97 579.995 677.927 569.949 679.513 566.324L680.886 565.825Z"/>
	<path fill="#921C2D" transform="scale(0.990234 0.990234)" d="M593.012 634.462C620.214 619.38 648.11 606.233 679.155 601.527Q678.994 616.624 679.109 631.721C669.951 641.186 641.259 655.643 628.851 662.805C616.948 669.675 605.402 677.092 593.36 683.736C592.237 678.441 593.013 671.629 593.027 666.19L593.012 634.462Z"/>
	<path fill="#FBF6DF" transform="scale(0.990234 0.990234)" d="M341.284 397.702C371.604 378.568 403.21 361.363 434.171 343.315C444.082 337.538 508.808 298.442 512.742 297.933C514.403 318.486 510.934 445.844 513.492 451.241C514.298 458.899 514.303 478.292 512.403 485.394C512.554 492.197 511.645 498.73 511.519 505.456C511.851 505.961 512.163 506.381 512.255 506.998C513.118 512.816 512.207 520.528 512.147 526.581C512.027 538.774 512.377 551.095 511.903 563.269L511.841 563.858C510.705 575.692 512.057 587.719 511.179 599.571C511.177 599.592 511.179 599.613 511.179 599.635L511.806 598.653L510.984 598.75C511.069 596.945 511.495 594.489 510.831 592.795C508.816 593.634 506.746 594.993 504.524 594.756C503.439 594.027 502.315 593.34 501.304 592.513C499.479 591.018 497.467 591.197 495.327 590.561C489.259 588.756 485.281 586.391 478.568 587.134C476.624 587.349 466.369 590.081 465.916 589.891C465.148 589.569 463.908 588.045 463.135 587.944C462.233 587.827 459.306 589.031 458.205 589.354C450.048 591.746 439.52 595.611 432.302 600.138C428.586 602.468 425.198 605.324 421.53 607.736C417.727 610.236 412.843 612.469 410.127 616.193C408.502 618.42 407.358 620.996 405.835 623.292C405.114 624.38 404.1 625.178 403.397 626.27C403.947 627.475 404.07 629.177 403.406 630.427C401.479 634.057 391.513 636.028 388.15 640.222C385.268 643.815 383.721 653.288 381.866 653.885C375.215 651.441 369.548 644.811 362.477 643.732C359.337 642.604 356.177 640.54 353.219 638.957C352.41 627.395 353.316 615.154 353.434 603.53C370.28 602.988 390.174 611.66 405.99 616.924C399.956 611.551 392.241 607.527 385.29 603.446Q370.264 594.653 355.141 586.028C350.365 583.257 343.852 580.212 339.924 576.359C340 576.22 340.092 576.088 340.153 575.941C340.911 574.108 341.154 567.634 340.505 565.803C340.526 565.753 340.551 565.704 340.569 565.652C341.933 561.779 342.509 522.704 341.017 519.535L341.284 397.702Z"/>
	<defs>
		<linearGradient id="gradient_1" gradientUnits="userSpaceOnUse" x1="447.8718" y1="546.65942" x2="405.53665" y2="427.20264">
			<stop offset="0" stop-color="#A6282F"/>
			<stop offset="1" stop-color="#F8703F"/>
		</linearGradient>
	</defs>
	<path fill="url(#gradient_1)" transform="scale(0.990234 0.990234)" d="M391.255 431.028C416.889 432.559 441.353 426.432 462.595 445.309Q463.775 446.365 464.903 447.477Q466.03 448.589 467.102 449.755Q468.174 450.92 469.188 452.137Q470.202 453.353 471.156 454.617Q472.109 455.882 473 457.191Q473.891 458.5 474.718 459.851Q475.544 461.202 476.304 462.592Q477.063 463.981 477.754 465.406Q478.445 466.831 479.066 468.288Q479.687 469.745 480.237 471.23Q480.786 472.715 481.263 474.225Q481.739 475.736 482.142 477.267Q482.544 478.799 482.872 480.348Q483.199 481.898 483.451 483.461Q483.703 485.025 483.878 486.599Q484.053 488.172 484.152 489.753C485.201 507.316 478.322 522.442 466.861 535.372C445.929 557.078 417.96 552.473 390.952 553.161C390.944 512.443 391.731 471.752 391.255 431.028Z"/>
	<defs>
		<linearGradient id="gradient_2" gradientUnits="userSpaceOnUse" x1="484.76831" y1="618.16052" x2="388.47873" y2="342.05374">
			<stop offset="0" stop-color="#8C2931"/>
			<stop offset="1" stop-color="#FF8C4C"/>
		</linearGradient>
	</defs>
	<path fill="url(#gradient_2)" transform="scale(0.990234 0.990234)" d="M341.284 397.702C371.604 378.568 403.21 361.363 434.171 343.315C444.082 337.538 508.808 298.442 512.742 297.933C514.403 318.486 510.934 445.844 513.492 451.241C514.298 458.899 514.303 478.292 512.403 485.394C512.345 485.194 512.284 484.995 512.228 484.794C511.074 480.655 511.278 476.155 510.105 471.936C503.469 448.064 489.879 428.34 468.269 415.759C445.168 402.311 425.546 403.922 400.135 403.827C387.625 403.78 375.117 403.495 362.607 403.569Q363.287 492.528 362.492 581.487L402.132 581.494C410.689 581.493 419.425 581.876 427.953 581.172C449.391 579.403 470.653 570.919 485.966 555.526C500.894 540.519 506.679 525.621 511.519 505.456C511.851 505.961 512.163 506.381 512.255 506.998C513.118 512.816 512.207 520.528 512.147 526.581C512.027 538.774 512.377 551.095 511.903 563.269L511.841 563.858C510.705 575.692 512.057 587.719 511.179 599.571C511.177 599.592 511.179 599.613 511.179 599.635L511.806 598.653L510.984 598.75C511.069 596.945 511.495 594.489 510.831 592.795C508.816 593.634 506.746 594.993 504.524 594.756C503.439 594.027 502.315 593.34 501.304 592.513C499.479 591.018 497.467 591.197 495.327 590.561C489.259 588.756 485.281 586.391 478.568 587.134C476.624 587.349 466.369 590.081 465.916 589.891C465.148 589.569 463.908 588.045 463.135 587.944C462.233 587.827 459.306 589.031 458.205 589.354C450.048 591.746 439.52 595.611 432.302 600.138C428.586 602.468 425.198 605.324 421.53 607.736C417.727 610.236 412.843 612.469 410.127 616.193C408.502 618.42 407.358 620.996 405.835 623.292C405.114 624.38 404.1 625.178 403.397 626.27C403.947 627.475 404.07 629.177 403.406 630.427C401.479 634.057 391.513 636.028 388.15 640.222C385.268 643.815 383.721 653.288 381.866 653.885C375.215 651.441 369.548 644.811 362.477 643.732C359.337 642.604 356.177 640.54 353.219 638.957C352.41 627.395 353.316 615.154 353.434 603.53C370.28 602.988 390.174 611.66 405.99 616.924C399.956 611.551 392.241 607.527 385.29 603.446Q370.264 594.653 355.141 586.028C350.365 583.257 343.852 580.212 339.924 576.359C340 576.22 340.092 576.088 340.153 575.941C340.911 574.108 341.154 567.634 340.505 565.803C340.526 565.753 340.551 565.704 340.569 565.652C341.933 561.779 342.509 522.704 341.017 519.535L341.284 397.702Z"/>
	<defs>
		<linearGradient id="gradient_3" gradientUnits="userSpaceOnUse" x1="638.59375" y1="826.81036" x2="386.22156" y2="459.51004">
			<stop offset="0" stop-color="#32ACB1"/>
			<stop offset="1" stop-color="#80D1C7"/>
		</linearGradient>
	</defs>
	<path fill="url(#gradient_3)" transform="scale(0.990234 0.990234)" d="M808.938 575.011C809.296 575.452 809.329 576.126 809.38 576.668C809.89 582.01 809.412 587.95 809.411 593.344L809.442 629.373L809.357 676.172C809.309 684.151 809.943 693.022 808.571 700.864Q808.401 701.878 808.158 702.878Q807.915 703.877 807.6 704.856Q807.285 705.835 806.9 706.789Q806.514 707.742 806.06 708.665Q805.606 709.588 805.087 710.476Q804.567 711.363 803.984 712.211Q803.401 713.058 802.758 713.861Q802.115 714.663 801.415 715.417C794.971 722.484 780.506 729.19 771.878 734.332L696.742 778.137C688.328 782.947 680.146 788.159 671.78 793.053L621.764 822.012L547.284 866.048C537.956 871.501 528.774 877.422 519.244 882.503C517.061 883.667 514.731 884.422 512.244 884.49C507.855 884.609 503.806 882.186 500.077 880.137C487.794 873.387 475.826 865.909 463.696 858.876L354.944 795.342L257.66 738.9C248.295 733.389 226.932 722.48 220.3 715.659C217.091 712.359 215.216 707.969 214.311 703.497C212.703 695.552 213.517 686.608 213.533 678.499L213.617 639.75C213.691 618.455 212.814 596.887 213.928 575.637C232.254 588.709 250.477 599.646 271.498 607.802L271.458 683.052C285.097 691.59 299.536 699.093 313.495 707.111L407.749 761.347L480.526 804.251C490.844 810.251 500.993 816.835 511.655 822.189C521.511 818.741 530.345 812.101 539.354 806.882C565.421 791.781 590.909 775.681 616.955 760.547L721.041 701.278C728.004 697.226 743.617 689.827 748.844 684.587C751.432 681.992 752.745 679.39 753.441 675.816C754.869 668.486 753.968 660.024 753.941 652.543Q753.817 630.525 753.916 608.508C775.095 600.542 792.287 590.331 808.938 575.011Z"/>
	<defs>
		<linearGradient id="gradient_4" gradientUnits="userSpaceOnUse" x1="617.76685" y1="555.79443" x2="403.13406" y2="197.87546">
			<stop offset="0" stop-color="#49B9B5"/>
			<stop offset="1" stop-color="#D3D6BE"/>
		</linearGradient>
	</defs>
	<path fill="url(#gradient_4)" transform="scale(0.990234 0.990234)" d="M214.003 437.13L213.952 361.666C213.928 350.628 212.899 334.61 214.209 324.209C214.688 320.41 216.197 317.005 218.122 313.738C220.176 310.249 222.818 306.692 226.204 304.428C233.876 299.297 242.244 294.949 250.218 290.294Q271.107 277.905 292.16 265.794L399.16 203.851Q434.299 183.404 469.652 163.33C479.056 157.978 495.749 146.789 505.739 144.289C510.667 143.055 515.531 142.959 520.29 144.816C528.098 147.862 535.433 152.657 542.683 156.818L580.335 178.575Q644.064 214.768 707.3 251.814C722.505 260.324 737.447 269.252 752.605 277.831Q766.78 285.825 780.722 294.22C787.389 298.188 794.662 302.01 800.4 307.288C804.105 310.694 806.586 315.532 807.96 320.333C810.93 330.712 809.528 344.417 809.508 355.324L809.498 406.44C809.517 416.041 809.108 425.901 809.865 435.47C792.872 451.148 773.643 463.712 753.41 474.832L753.443 402.494C753.408 382.85 753.065 363.157 753.358 343.517C717.673 322.408 681.391 302.246 645.955 280.725C638.254 277.625 629.311 271.156 621.954 266.847L545.295 222.95C537.756 218.729 530.541 213.218 522.781 209.515C519.936 208.157 517.179 207.434 514.036 207.201C509.812 206.887 505.56 207.205 501.707 209.078C494.894 212.39 488.352 216.68 481.811 220.51L453.55 236.795Q408.269 262.565 363.406 289.06L303.297 324.123C293.224 329.953 280.211 335.706 271.48 343.324C271.121 386.808 271.989 430.38 271.049 473.847C250.775 464.084 230.859 452.115 214.003 437.13Z"/>
	<path fill="#921C2D" transform="scale(0.990234 0.990234)" d="M512.742 297.933C526.045 307.182 541.124 314.582 555.15 322.728L645.392 375.019C656.489 381.499 668.816 387.13 679.223 394.615L678.989 459.333C679.767 468.363 679.236 477.777 679.202 486.845C679.162 497.275 679.518 507.886 679.003 518.294C678.918 523.722 678.296 562.236 679.589 564.383L680.886 565.825L679.513 566.324C677.927 569.949 678.97 579.995 679.067 584.272C654.311 595.583 630.429 608.564 606.415 621.354C586.183 632.129 565.395 642.757 545.943 654.898C545.939 662.346 544.99 707.57 546.468 710.927C541.961 713.459 513.984 730.166 511.525 729.83C499.928 722.737 487.901 716.268 476.468 708.926C460.709 700.618 445.682 690.863 429.959 682.457C423.929 678.622 417.259 675.52 411.017 672C394.782 662.845 378.258 653.637 362.477 643.732C369.548 644.811 375.215 651.441 381.866 653.885C383.721 653.288 385.268 643.815 388.15 640.222C391.513 636.028 401.479 634.057 403.406 630.427C404.07 629.177 403.947 627.475 403.397 626.27C404.1 625.178 405.114 624.38 405.835 623.292C407.358 620.996 408.502 618.42 410.127 616.193C412.843 612.469 417.727 610.236 421.53 607.736C425.198 605.324 428.586 602.468 432.302 600.138C439.52 595.611 450.048 591.746 458.205 589.354C459.306 589.031 462.233 587.827 463.135 587.944C463.908 588.045 465.148 589.569 465.916 589.891C466.369 590.081 476.624 587.349 478.568 587.134C485.281 586.391 489.259 588.756 495.327 590.561C497.467 591.197 499.479 591.018 501.304 592.513C502.315 593.34 503.439 594.027 504.524 594.756C506.746 594.993 508.816 593.634 510.831 592.795C511.495 594.489 511.069 596.945 510.984 598.75L511.806 598.653L511.179 599.635C511.179 599.613 511.177 599.592 511.179 599.571C512.057 587.719 510.705 575.692 511.841 563.858L511.903 563.269C512.377 551.095 512.027 538.774 512.147 526.581C512.207 520.528 513.118 512.816 512.255 506.998C512.163 506.381 511.851 505.961 511.519 505.456C511.645 498.73 512.554 492.197 512.403 485.394C514.303 478.292 514.298 458.899 513.492 451.241C510.934 445.844 514.403 318.486 512.742 297.933Z"/>
	<path fill="#F36337" transform="scale(0.990234 0.990234)" d="M430.905 628.852C446.294 637.003 461.964 645.026 476.971 653.849C476.993 661.203 478.086 705.588 476.468 708.926C460.709 700.618 445.682 690.863 429.959 682.457C430.921 664.666 429.371 646.555 430.905 628.852Z"/>
	<path fill="#FBF6DF" transform="scale(0.990234 0.990234)" d="M512.742 297.933C526.045 307.182 541.124 314.582 555.15 322.728L645.392 375.019C656.489 381.499 668.816 387.13 679.223 394.615L678.989 459.333C677.43 457.398 678.232 442.854 678.255 439.464C673.67 438.686 669.509 437.735 664.948 439.21C663.312 439.739 661.808 440.66 660.126 441.039C659.938 441.082 659.745 441.104 659.555 441.136C659.542 448.033 663.14 453.039 660.743 460.315C660.688 460.481 660.628 460.645 660.571 460.811C659.276 474.886 653.764 487.955 642.795 497.191C627.916 509.72 612.239 509.285 593.826 508.898C608.169 523.674 621.818 539.298 635.708 554.511C644.189 563.801 653.809 572.999 661.406 582.988C649.939 583.086 638.15 582.598 626.722 583.375Q603.29 558.644 580.533 533.29C572.968 525.01 565.551 515.875 557.381 508.269C554.777 508.226 552.161 508.12 549.559 508.265L549.098 583.062L521.911 583.251C521.906 563.804 522.393 544.186 521.863 524.755C520.791 515.837 521.836 444.012 520.314 442.316C517.953 442.176 515.978 442.891 513.754 443.571C513.782 446.154 513.798 448.669 513.492 451.241C510.934 445.844 514.403 318.486 512.742 297.933Z"/>
	<path fill="#921C2D" transform="scale(0.990234 0.990234)" d="M549.448 431.382L588.526 431.378C596.509 431.347 605.43 430.5 613.259 431.971C618.089 432.878 622.692 434.955 626.342 438.28C631.587 443.055 633.751 449.808 633.949 456.731C634.156 463.989 631.584 469.977 626.703 475.224C623.097 478.784 618.622 481.045 613.699 482.138C605.842 483.883 596.837 482.958 588.79 482.965L549.423 483.02L549.448 431.382Z"/>
	<path fill="#F36337" transform="scale(0.990234 0.990234)" d="M512.742 297.933C526.045 307.182 541.124 314.582 555.15 322.728L645.392 375.019C656.489 381.499 668.816 387.13 679.223 394.615L678.989 459.333C677.43 457.398 678.232 442.854 678.255 439.464C673.67 438.686 669.509 437.735 664.948 439.21C663.312 439.739 661.808 440.66 660.126 441.039C659.938 441.082 659.745 441.104 659.555 441.136C659.542 448.033 663.14 453.039 660.743 460.315C660.688 460.481 660.628 460.645 660.571 460.811C661.26 445.858 656.569 431.35 646.331 420.172Q645.506 419.26 644.637 418.391Q643.768 417.521 642.857 416.695Q641.946 415.87 640.995 415.091Q640.044 414.311 639.056 413.58Q638.068 412.849 637.044 412.168Q636.021 411.487 634.965 410.857Q633.909 410.227 632.823 409.651Q631.737 409.074 630.624 408.552Q629.511 408.031 628.373 407.564Q627.235 407.098 626.076 406.689Q624.917 406.28 623.739 405.929Q622.56 405.578 621.366 405.286Q620.172 404.994 618.965 404.761Q617.758 404.529 616.54 404.356Q615.323 404.184 614.099 404.072Q612.874 403.96 611.646 403.909C598.851 403.405 585.905 403.895 573.093 403.894C556.085 403.892 539.012 403.527 522.012 403.879L521.922 483.638C521.914 497.283 522.429 511.134 521.863 524.755C520.791 515.837 521.836 444.012 520.314 442.316C517.953 442.176 515.978 442.891 513.754 443.571C513.782 446.154 513.798 448.669 513.492 451.241C510.934 445.844 514.403 318.486 512.742 297.933Z"/>
</svg>
